<svg width="1000" height="800" viewBox="0 0 1000 800" fill="none" xmlns="http://www.w3.org/2000/svg">
<mask id="mask0_114_13" style="mask-type:alpha" maskUnits="userSpaceOnUse" x="0" y="0" width="1000" height="800">
<rect width="1000" height="800" fill="#D9D9D9"/>
</mask>
<g mask="url(#mask0_114_13)">
<g filter="url(#filter0_d_114_13)">
<path d="M275.014 191.598V191.598C247.354 163.704 264.27 110.733 300.838 110.733H501.824L703.905 110.733C740.644 110.733 757.083 164.487 728.635 191.598V191.598L540.882 410.55C519.311 435.705 484.338 435.705 462.767 410.55L275.014 191.598Z" fill="#75AFBC"/>
<path d="M728.309 191.218L540.556 410.17C519.165 435.116 484.484 435.116 463.093 410.17L275.34 191.218L275.014 191.598L275.315 191.192C247.977 163.623 264.696 111.269 300.838 111.269H501.824L703.905 111.269C740.211 111.269 756.456 164.39 728.343 191.182L728.635 191.598L728.309 191.218Z" stroke="black"/>
</g>
<g filter="url(#filter1_d_114_13)">
<rect width="148.082" height="148.277" rx="20" transform="matrix(0.650951 -0.75912 0.650951 0.75912 405.723 304.137)" fill="#57C7E0" fill-opacity="0.47" shape-rendering="crispEdges"/>
<rect x="1.3019" width="146.082" height="146.277" rx="19" transform="matrix(0.650951 -0.75912 0.650951 0.75912 406.177 305.125)" stroke="black" stroke-width="2" shape-rendering="crispEdges"/>
</g>
<g filter="url(#filter2_d_114_13)">
<rect width="108.884" height="109.027" rx="15" transform="matrix(0.650951 -0.75912 0.650951 0.75912 538.839 214.238)" fill="#3497AD" fill-opacity="0.61" shape-rendering="crispEdges"/>
<rect x="1.3019" width="106.884" height="107.027" rx="14" transform="matrix(0.650951 -0.75912 0.650951 0.75912 539.294 215.226)" stroke="black" stroke-width="2" shape-rendering="crispEdges"/>
</g>
<g filter="url(#filter3_d_114_13)">
<rect width="60.9751" height="61.0551" rx="10" transform="matrix(0.650951 -0.75912 0.650951 0.75912 360.818 250.04)" fill="#115E6F" fill-opacity="0.58" shape-rendering="crispEdges"/>
<rect x="1.3019" width="58.9751" height="59.0551" rx="9" transform="matrix(0.650951 -0.75912 0.650951 0.75912 361.273 251.028)" stroke="black" stroke-width="2" shape-rendering="crispEdges"/>
</g>
<g opacity="0.22" filter="url(#filter4_d_114_13)">
<path d="M562.886 477.867C549.191 455.87 551.165 427.566 567.78 407.682L772.403 162.802C793.857 137.126 832.167 133.96 857.546 155.765L948.257 233.703C973.06 255.013 976.231 292.26 955.388 317.457L727.572 592.849C701.451 624.425 652.064 621.105 630.405 586.316L562.886 477.867Z" fill="white"/>
<path d="M568.931 408.644L773.554 163.763C794.472 138.73 831.824 135.643 856.568 156.903L947.28 234.841C971.462 255.618 974.554 291.934 954.232 316.501L726.416 591.893C700.948 622.68 652.796 619.442 631.679 585.523L564.16 477.074C550.807 455.627 552.731 428.031 568.931 408.644Z" stroke="black" stroke-width="3"/>
</g>
<g opacity="0.22" filter="url(#filter5_d_114_13)">
<path d="M437.692 479.177C450.108 457.755 448.09 430.906 432.611 411.58L230.525 159.272C209.609 133.158 171.375 129.197 145.55 150.467L53.3989 226.363C28.1833 247.131 24.2154 284.255 44.4721 309.883L273.219 599.287C299.48 632.51 350.965 628.808 372.202 592.168L437.692 479.177Z" fill="white"/>
<path d="M431.441 412.518L229.354 160.21C208.961 134.749 171.683 130.886 146.503 151.625L54.3526 227.521C29.7673 247.77 25.8986 283.966 45.6489 308.953L274.396 598.356C300 630.75 350.199 627.14 370.904 591.416L436.394 478.425C448.5 457.538 446.533 431.36 431.441 412.518Z" stroke="black" stroke-width="3"/>
</g>
<g filter="url(#filter6_d_114_13)">
<path d="M449.186 488.614C472.28 448.614 530.015 448.614 553.109 488.614L622.802 609.324C645.896 649.324 617.028 699.324 570.84 699.324H431.456C385.268 699.324 356.4 649.324 379.494 609.324L449.186 488.614Z" fill="#B4455F"/>
<path d="M552.676 488.864L622.369 609.574C645.27 649.241 616.643 698.824 570.84 698.824H431.456C385.653 698.824 357.026 649.241 379.927 609.574L449.619 488.864C472.521 449.197 529.775 449.197 552.676 488.864Z" stroke="black"/>
</g>
<g filter="url(#filter7_d_114_13)">
<path d="M496.783 649.223C493.148 656.009 483.53 656.316 479.471 649.775L450.65 603.341C446.591 596.801 451.134 588.318 458.828 588.073L513.451 586.33C521.145 586.085 526.22 594.26 522.585 601.046L496.783 649.223Z" fill="#971836" fill-opacity="0.51" shape-rendering="crispEdges"/>
<path d="M479.896 649.511L451.075 603.077C447.218 596.864 451.534 588.806 458.844 588.572L513.467 586.83C520.776 586.597 525.597 594.364 522.144 600.81L496.342 648.987C492.889 655.434 483.752 655.725 479.896 649.511Z" stroke="black" shape-rendering="crispEdges"/>
</g>
<g filter="url(#filter8_d_114_13)">
<path d="M475.094 541.077C473.578 533.53 480.8 527.171 488.094 529.631L539.879 547.098C547.174 549.558 549.069 558.992 543.291 564.079L502.273 600.193C496.495 605.28 487.377 602.204 485.86 594.657L475.094 541.077Z" fill="#B50A33" fill-opacity="0.62" shape-rendering="crispEdges"/>
<path d="M487.935 530.105L539.72 547.572C546.649 549.909 548.45 558.871 542.961 563.704L501.942 599.817C496.453 604.65 487.791 601.728 486.351 594.559L475.585 540.978C474.144 533.809 481.005 527.768 487.935 530.105Z" stroke="black" shape-rendering="crispEdges"/>
</g>
</g>
<defs>
<filter id="filter0_d_114_13" x="257.279" y="110.733" width="489.784" height="326.684" filterUnits="userSpaceOnUse" color-interpolation-filters="sRGB">
<feFlood flood-opacity="0" result="BackgroundImageFix"/>
<feColorMatrix in="SourceAlpha" type="matrix" values="0 0 0 0 0 0 0 0 0 0 0 0 0 0 0 0 0 0 127 0" result="hardAlpha"/>
<feOffset dy="4"/>
<feGaussianBlur stdDeviation="2"/>
<feComposite in2="hardAlpha" operator="out"/>
<feColorMatrix type="matrix" values="0 0 0 0 0 0 0 0 0 0 0 0 0 0 0 0 0 0 0.25 0"/>
<feBlend mode="normal" in2="BackgroundImageFix" result="effect1_dropShadow_114_13"/>
<feBlend mode="normal" in="SourceGraphic" in2="effect1_dropShadow_114_13" result="shape"/>
</filter>
<filter id="filter1_d_114_13" x="409.349" y="200.618" width="185.662" height="215.185" filterUnits="userSpaceOnUse" color-interpolation-filters="sRGB">
<feFlood flood-opacity="0" result="BackgroundImageFix"/>
<feColorMatrix in="SourceAlpha" type="matrix" values="0 0 0 0 0 0 0 0 0 0 0 0 0 0 0 0 0 0 127 0" result="hardAlpha"/>
<feOffset dy="4"/>
<feGaussianBlur stdDeviation="2"/>
<feComposite in2="hardAlpha" operator="out"/>
<feColorMatrix type="matrix" values="0 0 0 0 0 0 0 0 0 0 0 0 0 0 0 0 0 0 0.25 0"/>
<feBlend mode="normal" in2="BackgroundImageFix" result="effect1_dropShadow_114_13"/>
<feBlend mode="normal" in="SourceGraphic" in2="effect1_dropShadow_114_13" result="shape"/>
</filter>
<filter id="filter2_d_114_13" x="540.559" y="138.252" width="138.41" height="160.08" filterUnits="userSpaceOnUse" color-interpolation-filters="sRGB">
<feFlood flood-opacity="0" result="BackgroundImageFix"/>
<feColorMatrix in="SourceAlpha" type="matrix" values="0 0 0 0 0 0 0 0 0 0 0 0 0 0 0 0 0 0 127 0" result="hardAlpha"/>
<feOffset dy="4"/>
<feGaussianBlur stdDeviation="2"/>
<feComposite in2="hardAlpha" operator="out"/>
<feColorMatrix type="matrix" values="0 0 0 0 0 0 0 0 0 0 0 0 0 0 0 0 0 0 0.25 0"/>
<feBlend mode="normal" in2="BackgroundImageFix" result="effect1_dropShadow_114_13"/>
<feBlend mode="normal" in="SourceGraphic" in2="effect1_dropShadow_114_13" result="shape"/>
</filter>
<filter id="filter3_d_114_13" x="360.632" y="208.199" width="79.8093" height="91.7418" filterUnits="userSpaceOnUse" color-interpolation-filters="sRGB">
<feFlood flood-opacity="0" result="BackgroundImageFix"/>
<feColorMatrix in="SourceAlpha" type="matrix" values="0 0 0 0 0 0 0 0 0 0 0 0 0 0 0 0 0 0 127 0" result="hardAlpha"/>
<feOffset dy="4"/>
<feGaussianBlur stdDeviation="2"/>
<feComposite in2="hardAlpha" operator="out"/>
<feColorMatrix type="matrix" values="0 0 0 0 0 0 0 0 0 0 0 0 0 0 0 0 0 0 0.25 0"/>
<feBlend mode="normal" in2="BackgroundImageFix" result="effect1_dropShadow_114_13"/>
<feBlend mode="normal" in="SourceGraphic" in2="effect1_dropShadow_114_13" result="shape"/>
</filter>
<filter id="filter4_d_114_13" x="549.821" y="141.273" width="423.336" height="481.333" filterUnits="userSpaceOnUse" color-interpolation-filters="sRGB">
<feFlood flood-opacity="0" result="BackgroundImageFix"/>
<feColorMatrix in="SourceAlpha" type="matrix" values="0 0 0 0 0 0 0 0 0 0 0 0 0 0 0 0 0 0 127 0" result="hardAlpha"/>
<feOffset dy="4"/>
<feGaussianBlur stdDeviation="2"/>
<feComposite in2="hardAlpha" operator="out"/>
<feColorMatrix type="matrix" values="0 0 0 0 0 0 0 0 0 0 0 0 0 0 0 0 0 0 0.25 0"/>
<feBlend mode="normal" in2="BackgroundImageFix" result="effect1_dropShadow_114_13"/>
<feBlend mode="normal" in="SourceGraphic" in2="effect1_dropShadow_114_13" result="shape"/>
</filter>
<filter id="filter5_d_114_13" x="27.5416" y="136.779" width="422.24" height="493.304" filterUnits="userSpaceOnUse" color-interpolation-filters="sRGB">
<feFlood flood-opacity="0" result="BackgroundImageFix"/>
<feColorMatrix in="SourceAlpha" type="matrix" values="0 0 0 0 0 0 0 0 0 0 0 0 0 0 0 0 0 0 127 0" result="hardAlpha"/>
<feOffset dy="4"/>
<feGaussianBlur stdDeviation="2"/>
<feComposite in2="hardAlpha" operator="out"/>
<feColorMatrix type="matrix" values="0 0 0 0 0 0 0 0 0 0 0 0 0 0 0 0 0 0 0.25 0"/>
<feBlend mode="normal" in2="BackgroundImageFix" result="effect1_dropShadow_114_13"/>
<feBlend mode="normal" in="SourceGraphic" in2="effect1_dropShadow_114_13" result="shape"/>
</filter>
<filter id="filter6_d_114_13" x="367.366" y="458.614" width="267.563" height="248.711" filterUnits="userSpaceOnUse" color-interpolation-filters="sRGB">
<feFlood flood-opacity="0" result="BackgroundImageFix"/>
<feColorMatrix in="SourceAlpha" type="matrix" values="0 0 0 0 0 0 0 0 0 0 0 0 0 0 0 0 0 0 127 0" result="hardAlpha"/>
<feOffset dy="4"/>
<feGaussianBlur stdDeviation="2"/>
<feComposite in2="hardAlpha" operator="out"/>
<feColorMatrix type="matrix" values="0 0 0 0 0 0 0 0 0 0 0 0 0 0 0 0 0 0 0.25 0"/>
<feBlend mode="normal" in2="BackgroundImageFix" result="effect1_dropShadow_114_13"/>
<feBlend mode="normal" in="SourceGraphic" in2="effect1_dropShadow_114_13" result="shape"/>
</filter>
<filter id="filter7_d_114_13" x="445.132" y="586.325" width="82.6528" height="76.177" filterUnits="userSpaceOnUse" color-interpolation-filters="sRGB">
<feFlood flood-opacity="0" result="BackgroundImageFix"/>
<feColorMatrix in="SourceAlpha" type="matrix" values="0 0 0 0 0 0 0 0 0 0 0 0 0 0 0 0 0 0 127 0" result="hardAlpha"/>
<feOffset dy="4"/>
<feGaussianBlur stdDeviation="2"/>
<feComposite in2="hardAlpha" operator="out"/>
<feColorMatrix type="matrix" values="0 0 0 0 0 0 0 0 0 0 0 0 0 0 0 0 0 0 0.25 0"/>
<feBlend mode="normal" in2="BackgroundImageFix" result="effect1_dropShadow_114_13"/>
<feBlend mode="normal" in="SourceGraphic" in2="effect1_dropShadow_114_13" result="shape"/>
</filter>
<filter id="filter8_d_114_13" x="470.891" y="529.094" width="79.7959" height="81.6021" filterUnits="userSpaceOnUse" color-interpolation-filters="sRGB">
<feFlood flood-opacity="0" result="BackgroundImageFix"/>
<feColorMatrix in="SourceAlpha" type="matrix" values="0 0 0 0 0 0 0 0 0 0 0 0 0 0 0 0 0 0 127 0" result="hardAlpha"/>
<feOffset dy="4"/>
<feGaussianBlur stdDeviation="2"/>
<feComposite in2="hardAlpha" operator="out"/>
<feColorMatrix type="matrix" values="0 0 0 0 0 0 0 0 0 0 0 0 0 0 0 0 0 0 0.25 0"/>
<feBlend mode="normal" in2="BackgroundImageFix" result="effect1_dropShadow_114_13"/>
<feBlend mode="normal" in="SourceGraphic" in2="effect1_dropShadow_114_13" result="shape"/>
</filter>
</defs>
</svg>
