<svg width="1278" height="1238" viewBox="0 0 1278 1238" fill="none" xmlns="http://www.w3.org/2000/svg">
<mask id="mask0_109_18" style="mask-type:alpha" maskUnits="userSpaceOnUse" x="0" y="0" width="1278" height="1238">
<rect width="1278" height="1238" fill="#D9D9D9"/>
</mask>
<g mask="url(#mask0_109_18)">
<g filter="url(#filter0_d_109_18)">
<path d="M357.955 230.693C323.462 195.908 344.557 129.85 390.159 129.85H640.798L892.802 129.85C938.617 129.85 959.117 196.884 923.641 230.693L679.855 514.989C658.285 540.144 623.312 540.144 601.741 514.989L357.955 230.693Z" fill="#75AFBC"/>
<path d="M358.281 230.313L358.269 230.3L358.257 230.287C324.085 195.827 344.983 130.387 390.159 130.387L640.798 130.387L892.802 130.387C938.185 130.387 958.491 196.788 923.35 230.277L923.332 230.294L923.316 230.313L679.53 514.609C658.139 539.554 623.458 539.554 602.067 514.609L358.281 230.313Z" stroke="black"/>
</g>
<g filter="url(#filter1_d_109_18)">
<rect width="184.665" height="184.908" rx="20" transform="matrix(0.650951 -0.75912 0.650951 0.75912 520.955 371.034)" fill="#57C7E0" fill-opacity="0.47" shape-rendering="crispEdges"/>
<rect x="1.3019" width="182.665" height="182.908" rx="19" transform="matrix(0.650951 -0.75912 0.650951 0.75912 521.409 372.022)" stroke="black" stroke-width="2" shape-rendering="crispEdges"/>
</g>
<g filter="url(#filter2_d_109_18)">
<rect width="135.783" height="135.962" rx="15" transform="matrix(0.650951 -0.75912 0.650951 0.75912 686.957 258.926)" fill="#3497AD" fill-opacity="0.61" shape-rendering="crispEdges"/>
<rect x="1.3019" width="133.783" height="133.962" rx="14" transform="matrix(0.650951 -0.75912 0.650951 0.75912 687.412 259.915)" stroke="black" stroke-width="2" shape-rendering="crispEdges"/>
</g>
<g filter="url(#filter3_d_109_18)">
<rect width="76.0387" height="76.1385" rx="10" transform="matrix(0.650951 -0.75912 0.650951 0.75912 464.957 303.573)" fill="#115E6F" fill-opacity="0.58" shape-rendering="crispEdges"/>
<rect x="1.3019" width="74.0387" height="74.1385" rx="9" transform="matrix(0.650951 -0.75912 0.650951 0.75912 465.411 304.561)" stroke="black" stroke-width="2" shape-rendering="crispEdges"/>
</g>
<g opacity="0.22" filter="url(#filter4_d_109_18)">
<path d="M711.275 578.576C697.58 556.579 699.553 528.276 716.168 508.392L987.858 183.251C1009.31 157.575 1047.62 154.409 1073 176.214L1208.56 292.681C1233.36 313.991 1236.53 351.238 1215.69 376.434L909.193 746.935C883.071 778.511 833.685 775.191 812.026 740.402L711.275 578.576Z" fill="white"/>
<path d="M712.549 577.783C699.196 556.336 701.12 528.74 717.319 509.354L989.009 184.213C1009.93 159.179 1047.28 156.092 1072.02 177.352L1207.58 293.818C1231.76 314.596 1234.85 350.912 1214.53 375.478L908.037 745.979C882.569 776.766 834.417 773.528 813.299 739.609L712.549 577.783Z" stroke="black" stroke-width="3"/>
</g>
<g opacity="0.22" filter="url(#filter5_d_109_18)">
<path d="M565.911 580.538C578.327 559.116 576.309 532.267 560.83 512.941L293.081 178.653C272.165 152.539 233.932 148.577 208.106 169.848L70.3771 283.283C45.1615 304.051 41.1936 341.175 61.4502 366.803L369.237 756.204C395.498 789.428 446.983 785.726 468.22 749.086L565.911 580.538Z" fill="white"/>
<path d="M564.613 579.785C576.719 558.899 574.751 532.721 559.659 513.879L291.911 179.591C271.518 154.13 234.24 150.267 209.06 171.006L71.3308 284.441C46.7456 304.689 42.8768 340.885 62.627 365.872L370.414 755.274C396.018 787.667 446.216 784.057 466.922 748.334L564.613 579.785Z" stroke="black" stroke-width="3"/>
</g>
<g filter="url(#filter6_d_109_18)">
<path d="M587.993 578.851C611.087 538.851 668.822 538.851 691.916 578.851L804.499 773.851C827.593 813.851 798.726 863.851 752.538 863.851H527.371C481.183 863.851 452.316 813.851 475.41 773.851L587.993 578.851Z" fill="#B4455F"/>
<path d="M588.426 579.101C611.328 539.434 668.582 539.434 691.483 579.101L804.066 774.101C826.968 813.768 798.341 863.351 752.538 863.351H527.371C481.568 863.351 452.941 813.767 475.843 774.101L588.426 579.101Z" stroke="black"/>
</g>
<g filter="url(#filter7_d_109_18)">
<path d="M632.49 805.144C628.856 811.93 619.238 812.237 615.179 805.697L574.725 740.52C570.665 733.98 575.208 725.497 582.902 725.252L659.574 722.806C667.268 722.56 672.342 730.736 668.708 737.522L632.49 805.144Z" fill="#971836" fill-opacity="0.51" shape-rendering="crispEdges"/>
<path d="M632.05 804.908C628.597 811.355 619.46 811.646 615.604 805.433L575.15 740.256C571.293 734.043 575.609 725.985 582.918 725.751L659.59 723.306C666.899 723.072 671.72 730.839 668.267 737.286L632.05 804.908Z" stroke="black" shape-rendering="crispEdges"/>
</g>
<g filter="url(#filter8_d_109_18)">
<path d="M606.622 662.314C605.105 654.767 612.327 648.408 619.622 650.869L692.309 675.385C699.603 677.846 701.499 687.28 695.721 692.366L638.145 743.057C632.368 748.144 623.25 745.069 621.733 737.521L606.622 662.314Z" fill="#B50A33" fill-opacity="0.62" shape-rendering="crispEdges"/>
<path d="M607.112 662.216C605.671 655.046 612.532 649.005 619.462 651.343L692.149 675.859C699.079 678.196 700.879 687.159 695.391 691.991L637.815 742.682C632.326 747.514 623.664 744.593 622.223 737.423L607.112 662.216Z" stroke="black" shape-rendering="crispEdges"/>
</g>
<g filter="url(#filter9_d_109_18)">
<path d="M17.16 1003C17.16 999.36 18.5467 996.327 21.32 993.9C24.0933 991.3 27.4733 990 31.46 990H147.94C147.94 998.32 146.38 1004.47 143.26 1008.46C140.14 1012.27 135.2 1014.18 128.44 1014.18H45.24V1066.7H116.74C116.74 1075.02 115.18 1081.17 112.06 1085.16C108.94 1088.97 104 1090.88 97.24 1090.88H45.24V1153.02C45.24 1160.3 42.9 1165.67 38.22 1169.14C33.7133 1172.61 26.6933 1174.34 17.16 1174.34V1003ZM246.945 1010.8C246.945 1003.69 249.285 998.06 253.965 993.9C258.645 989.74 264.972 987.66 272.945 987.66L369.665 1135.6L371.745 1134.04L363.165 1119.74V987.66C372.178 987.66 379.025 989.567 383.705 993.38C388.385 997.02 390.725 1002.48 390.725 1009.76V1153.54C390.725 1159.43 388.472 1164.37 383.965 1168.36C379.632 1172.35 374.258 1174.34 367.845 1174.34L268.005 1021.46L265.925 1023.28L274.505 1037.58V1152.24C274.505 1166.97 265.318 1174.34 246.945 1174.34V1010.8ZM602.16 1010.8C602.16 1003.69 604.5 998.06 609.18 993.9C613.86 989.74 620.187 987.66 628.16 987.66L724.88 1135.6L726.96 1134.04L718.38 1119.74V987.66C727.393 987.66 734.24 989.567 738.92 993.38C743.6 997.02 745.94 1002.48 745.94 1009.76V1153.54C745.94 1159.43 743.687 1164.37 739.18 1168.36C734.847 1172.35 729.473 1174.34 723.06 1174.34L623.22 1021.46L621.14 1023.28L629.72 1037.58V1152.24C629.72 1166.97 620.533 1174.34 602.16 1174.34V1010.8ZM958.137 1003C958.137 999.36 959.523 996.327 962.297 993.9C965.07 991.3 968.45 990 972.437 990H1087.88C1087.88 998.32 1086.23 1004.47 1082.94 1008.46C1079.82 1012.27 1074.88 1014.18 1068.12 1014.18H986.217V1068H1057.72C1057.72 1076.32 1056.16 1082.47 1053.04 1086.46C1049.92 1090.27 1044.98 1092.18 1038.22 1092.18H986.217V1147.82H1073.58C1080.16 1147.82 1085.02 1149.81 1088.14 1153.8C1091.43 1157.61 1093.08 1163.68 1093.08 1172H972.437C968.45 1172 965.07 1170.79 962.297 1168.36C959.523 1165.76 958.137 1162.64 958.137 1159V1003Z" fill="#75AFBC"/>
<path d="M179.274 1009.76C179.274 1002.65 181.701 997.193 186.554 993.38C191.407 989.567 198.341 987.66 207.354 987.66V1152.24C207.354 1159.35 204.927 1164.81 200.074 1168.62C195.221 1172.43 188.287 1174.34 179.274 1174.34V1009.76ZM437.933 1174.34C431.867 1173.47 427.187 1171.13 423.893 1167.32C420.6 1163.51 418.953 1158.91 418.953 1153.54C418.953 1149.55 419.82 1145.57 421.553 1141.58L482.913 996.76C485.513 990.693 490.107 987.66 496.693 987.66C503.107 987.66 507.527 990.693 509.953 996.76L571.313 1141.58C573.047 1145.57 573.913 1149.55 573.913 1153.54C573.913 1158.91 572.267 1163.51 568.973 1167.32C565.68 1171.13 561 1173.47 554.933 1174.34L532.833 1121.56H460.293L437.933 1174.34ZM524.253 1097.64L492.273 1017.3L489.933 1018.34L495.133 1031.6L468.613 1097.64H524.253ZM853.468 1174.34C838.562 1174.34 825.302 1171.57 813.688 1166.02C802.075 1160.3 793.062 1152.41 786.648 1142.36C780.235 1132.31 777.028 1120.87 777.028 1108.04V1053.44C777.028 1040.61 780.235 1029.26 786.648 1019.38C793.062 1009.33 801.988 1001.53 813.428 995.98C824.868 990.433 837.955 987.66 852.688 987.66C867.422 987.66 880.508 990 891.948 994.68C903.562 999.187 912.575 1005.51 918.988 1013.66C925.402 1021.81 928.608 1031.17 928.608 1041.74C928.608 1047.29 926.788 1051.71 923.148 1055C919.508 1058.12 914.655 1059.68 908.588 1059.68C906.335 1059.68 903.735 1059.42 900.788 1058.9C901.135 1056.13 901.308 1052.57 901.308 1048.24C901.308 1041.13 899.228 1034.89 895.068 1029.52C890.908 1023.97 885.102 1019.73 877.648 1016.78C870.368 1013.66 862.048 1012.1 852.688 1012.1C843.502 1012.1 835.268 1013.83 827.988 1017.3C820.708 1020.77 814.988 1025.71 810.828 1032.12C806.842 1038.36 804.848 1045.47 804.848 1053.44V1108.04C804.848 1116.19 806.928 1123.47 811.088 1129.88C815.248 1136.12 820.968 1141.06 828.248 1144.7C835.702 1148.17 844.108 1149.9 853.468 1149.9C868.028 1149.9 879.815 1146.61 888.828 1140.02C898.015 1133.26 902.608 1124.51 902.608 1113.76C902.608 1110.47 902.435 1106.91 902.088 1103.1C904.515 1102.58 906.855 1102.32 909.108 1102.32C915.348 1102.32 920.375 1104.05 924.188 1107.52C928.002 1110.99 929.908 1115.67 929.908 1121.56C929.908 1131.79 926.702 1140.97 920.288 1149.12C913.875 1157.09 904.862 1163.33 893.248 1167.84C881.635 1172.17 868.375 1174.34 853.468 1174.34ZM1121.14 1003C1121.14 999.187 1122.44 996.067 1125.04 993.64C1127.82 991.213 1131.28 990 1135.44 990H1206.42C1223.76 990 1237.45 994.94 1247.5 1004.82C1257.73 1014.53 1262.84 1027.79 1262.84 1044.6C1262.84 1065.05 1254.09 1079.44 1236.58 1087.76V1088.54C1244.21 1092.01 1250.02 1097.03 1254 1103.62C1258.16 1110.21 1260.24 1118.18 1260.24 1127.54V1152.24C1260.24 1159.35 1257.82 1164.81 1252.96 1168.62C1248.28 1172.43 1241.44 1174.34 1232.42 1174.34V1129.1C1232.42 1109.34 1223.84 1099.46 1206.68 1099.46H1148.7V1152.24C1148.7 1166.97 1139.52 1174.34 1121.14 1174.34V1003ZM1205.12 1075.54C1214.31 1075.54 1221.5 1072.77 1226.7 1067.22C1232.08 1061.67 1234.76 1054.05 1234.76 1044.34C1234.76 1034.46 1232.25 1027.01 1227.22 1021.98C1222.2 1016.78 1214.83 1014.18 1205.12 1014.18H1148.7V1075.54H1205.12Z" fill="#B4455F"/>
</g>
</g>
<defs>
<filter id="filter0_d_109_18" x="336.827" y="129.85" width="608.807" height="412.005" filterUnits="userSpaceOnUse" color-interpolation-filters="sRGB">
<feFlood flood-opacity="0" result="BackgroundImageFix"/>
<feColorMatrix in="SourceAlpha" type="matrix" values="0 0 0 0 0 0 0 0 0 0 0 0 0 0 0 0 0 0 127 0" result="hardAlpha"/>
<feOffset dy="4"/>
<feGaussianBlur stdDeviation="2"/>
<feComposite in2="hardAlpha" operator="out"/>
<feColorMatrix type="matrix" values="0 0 0 0 0 0 0 0 0 0 0 0 0 0 0 0 0 0 0.25 0"/>
<feBlend mode="normal" in2="BackgroundImageFix" result="effect1_dropShadow_109_18"/>
<feBlend mode="normal" in="SourceGraphic" in2="effect1_dropShadow_109_18" result="shape"/>
</filter>
<filter id="filter1_d_109_18" x="524.581" y="239.744" width="233.321" height="270.763" filterUnits="userSpaceOnUse" color-interpolation-filters="sRGB">
<feFlood flood-opacity="0" result="BackgroundImageFix"/>
<feColorMatrix in="SourceAlpha" type="matrix" values="0 0 0 0 0 0 0 0 0 0 0 0 0 0 0 0 0 0 127 0" result="hardAlpha"/>
<feOffset dy="4"/>
<feGaussianBlur stdDeviation="2"/>
<feComposite in2="hardAlpha" operator="out"/>
<feColorMatrix type="matrix" values="0 0 0 0 0 0 0 0 0 0 0 0 0 0 0 0 0 0 0.25 0"/>
<feBlend mode="normal" in2="BackgroundImageFix" result="effect1_dropShadow_109_18"/>
<feBlend mode="normal" in="SourceGraphic" in2="effect1_dropShadow_109_18" result="shape"/>
</filter>
<filter id="filter2_d_109_18" x="688.677" y="162.521" width="173.453" height="200.947" filterUnits="userSpaceOnUse" color-interpolation-filters="sRGB">
<feFlood flood-opacity="0" result="BackgroundImageFix"/>
<feColorMatrix in="SourceAlpha" type="matrix" values="0 0 0 0 0 0 0 0 0 0 0 0 0 0 0 0 0 0 127 0" result="hardAlpha"/>
<feOffset dy="4"/>
<feGaussianBlur stdDeviation="2"/>
<feComposite in2="hardAlpha" operator="out"/>
<feColorMatrix type="matrix" values="0 0 0 0 0 0 0 0 0 0 0 0 0 0 0 0 0 0 0.25 0"/>
<feBlend mode="normal" in2="BackgroundImageFix" result="effect1_dropShadow_109_18"/>
<feBlend mode="normal" in="SourceGraphic" in2="effect1_dropShadow_109_18" result="shape"/>
</filter>
<filter id="filter3_d_109_18" x="464.77" y="250.297" width="99.4335" height="114.627" filterUnits="userSpaceOnUse" color-interpolation-filters="sRGB">
<feFlood flood-opacity="0" result="BackgroundImageFix"/>
<feColorMatrix in="SourceAlpha" type="matrix" values="0 0 0 0 0 0 0 0 0 0 0 0 0 0 0 0 0 0 127 0" result="hardAlpha"/>
<feOffset dy="4"/>
<feGaussianBlur stdDeviation="2"/>
<feComposite in2="hardAlpha" operator="out"/>
<feColorMatrix type="matrix" values="0 0 0 0 0 0 0 0 0 0 0 0 0 0 0 0 0 0 0.25 0"/>
<feBlend mode="normal" in2="BackgroundImageFix" result="effect1_dropShadow_109_18"/>
<feBlend mode="normal" in="SourceGraphic" in2="effect1_dropShadow_109_18" result="shape"/>
</filter>
<filter id="filter4_d_109_18" x="698.21" y="161.722" width="535.245" height="614.97" filterUnits="userSpaceOnUse" color-interpolation-filters="sRGB">
<feFlood flood-opacity="0" result="BackgroundImageFix"/>
<feColorMatrix in="SourceAlpha" type="matrix" values="0 0 0 0 0 0 0 0 0 0 0 0 0 0 0 0 0 0 127 0" result="hardAlpha"/>
<feOffset dy="4"/>
<feGaussianBlur stdDeviation="2"/>
<feComposite in2="hardAlpha" operator="out"/>
<feColorMatrix type="matrix" values="0 0 0 0 0 0 0 0 0 0 0 0 0 0 0 0 0 0 0.25 0"/>
<feBlend mode="normal" in2="BackgroundImageFix" result="effect1_dropShadow_109_18"/>
<feBlend mode="normal" in="SourceGraphic" in2="effect1_dropShadow_109_18" result="shape"/>
</filter>
<filter id="filter5_d_109_18" x="44.5198" y="156.16" width="533.48" height="630.841" filterUnits="userSpaceOnUse" color-interpolation-filters="sRGB">
<feFlood flood-opacity="0" result="BackgroundImageFix"/>
<feColorMatrix in="SourceAlpha" type="matrix" values="0 0 0 0 0 0 0 0 0 0 0 0 0 0 0 0 0 0 127 0" result="hardAlpha"/>
<feOffset dy="4"/>
<feGaussianBlur stdDeviation="2"/>
<feComposite in2="hardAlpha" operator="out"/>
<feColorMatrix type="matrix" values="0 0 0 0 0 0 0 0 0 0 0 0 0 0 0 0 0 0 0.25 0"/>
<feBlend mode="normal" in2="BackgroundImageFix" result="effect1_dropShadow_109_18"/>
<feBlend mode="normal" in="SourceGraphic" in2="effect1_dropShadow_109_18" result="shape"/>
</filter>
<filter id="filter6_d_109_18" x="463.282" y="548.851" width="353.346" height="323" filterUnits="userSpaceOnUse" color-interpolation-filters="sRGB">
<feFlood flood-opacity="0" result="BackgroundImageFix"/>
<feColorMatrix in="SourceAlpha" type="matrix" values="0 0 0 0 0 0 0 0 0 0 0 0 0 0 0 0 0 0 127 0" result="hardAlpha"/>
<feOffset dy="4"/>
<feGaussianBlur stdDeviation="2"/>
<feComposite in2="hardAlpha" operator="out"/>
<feColorMatrix type="matrix" values="0 0 0 0 0 0 0 0 0 0 0 0 0 0 0 0 0 0 0.25 0"/>
<feBlend mode="normal" in2="BackgroundImageFix" result="effect1_dropShadow_109_18"/>
<feBlend mode="normal" in="SourceGraphic" in2="effect1_dropShadow_109_18" result="shape"/>
</filter>
<filter id="filter7_d_109_18" x="569.207" y="722.8" width="104.701" height="95.6228" filterUnits="userSpaceOnUse" color-interpolation-filters="sRGB">
<feFlood flood-opacity="0" result="BackgroundImageFix"/>
<feColorMatrix in="SourceAlpha" type="matrix" values="0 0 0 0 0 0 0 0 0 0 0 0 0 0 0 0 0 0 127 0" result="hardAlpha"/>
<feOffset dy="4"/>
<feGaussianBlur stdDeviation="2"/>
<feComposite in2="hardAlpha" operator="out"/>
<feColorMatrix type="matrix" values="0 0 0 0 0 0 0 0 0 0 0 0 0 0 0 0 0 0 0.25 0"/>
<feBlend mode="normal" in2="BackgroundImageFix" result="effect1_dropShadow_109_18"/>
<feBlend mode="normal" in="SourceGraphic" in2="effect1_dropShadow_109_18" result="shape"/>
</filter>
<filter id="filter8_d_109_18" x="602.418" y="650.331" width="100.698" height="103.229" filterUnits="userSpaceOnUse" color-interpolation-filters="sRGB">
<feFlood flood-opacity="0" result="BackgroundImageFix"/>
<feColorMatrix in="SourceAlpha" type="matrix" values="0 0 0 0 0 0 0 0 0 0 0 0 0 0 0 0 0 0 127 0" result="hardAlpha"/>
<feOffset dy="4"/>
<feGaussianBlur stdDeviation="2"/>
<feComposite in2="hardAlpha" operator="out"/>
<feColorMatrix type="matrix" values="0 0 0 0 0 0 0 0 0 0 0 0 0 0 0 0 0 0 0.25 0"/>
<feBlend mode="normal" in2="BackgroundImageFix" result="effect1_dropShadow_109_18"/>
<feBlend mode="normal" in="SourceGraphic" in2="effect1_dropShadow_109_18" result="shape"/>
</filter>
<filter id="filter9_d_109_18" x="13.16" y="987.66" width="1253.68" height="194.68" filterUnits="userSpaceOnUse" color-interpolation-filters="sRGB">
<feFlood flood-opacity="0" result="BackgroundImageFix"/>
<feColorMatrix in="SourceAlpha" type="matrix" values="0 0 0 0 0 0 0 0 0 0 0 0 0 0 0 0 0 0 127 0" result="hardAlpha"/>
<feOffset dy="4"/>
<feGaussianBlur stdDeviation="2"/>
<feComposite in2="hardAlpha" operator="out"/>
<feColorMatrix type="matrix" values="0 0 0 0 0 0 0 0 0 0 0 0 0 0 0 0 0 0 0.25 0"/>
<feBlend mode="normal" in2="BackgroundImageFix" result="effect1_dropShadow_109_18"/>
<feBlend mode="normal" in="SourceGraphic" in2="effect1_dropShadow_109_18" result="shape"/>
</filter>
</defs>
</svg>
